<svg width="118" height="54" viewBox="0 0 118 54" fill="none" xmlns="http://www.w3.org/2000/svg">
<g clip-path="url(#clip0_6863_1091)">
<path d="M93.5894 26.9482C93.6114 26.789 93.6386 26.635 93.6712 26.4863C93.7714 26.028 93.9218 25.6341 94.1223 25.3047C94.33 24.9681 94.5878 24.7103 94.8958 24.5312C95.2109 24.3451 95.5797 24.252 96.0022 24.252C96.525 24.252 96.9511 24.3665 97.2805 24.5957C97.61 24.8177 97.8535 25.1185 98.011 25.498C98.1686 25.8704 98.2545 26.2822 98.2688 26.7334V26.9482H93.5894Z" fill="#0D9488"/>
<path fill-rule="evenodd" clip-rule="evenodd" d="M42.6667 0C42.6667 2.94552 40.2789 5.33333 37.3333 5.33333C34.3878 5.33333 32 2.94552 32 0H0V21.3333C2.94552 21.3333 5.33333 23.7211 5.33333 26.6667C5.33333 29.6122 2.94552 32 0 32V53.3333H32C32 50.3878 34.3878 48 37.3333 48C40.2789 48 42.6667 50.3878 42.6667 53.3333H117.333V32C114.388 32 112 29.6122 112 26.6667C112 23.7211 114.388 21.3333 117.333 21.3333V0H42.6667ZM24.9053 29.7949C24.9053 29.4941 24.8587 29.2256 24.7656 28.9893C24.6797 28.7458 24.5186 28.5273 24.2822 28.334C24.0531 28.1335 23.7272 27.9401 23.3047 27.7539C22.8893 27.5605 22.3522 27.36 21.6934 27.1523C20.9629 26.9232 20.2826 26.6654 19.6523 26.3789C19.0221 26.0924 18.4671 25.7594 17.9873 25.3799C17.5146 25.0003 17.1458 24.5635 16.8809 24.0693C16.6159 23.568 16.4834 22.988 16.4834 22.3291C16.4834 21.6846 16.6195 21.0973 16.8916 20.5674C17.1709 20.0374 17.5648 19.5827 18.0732 19.2031C18.5817 18.8164 19.1797 18.5192 19.8672 18.3115C20.5618 18.1038 21.3281 18 22.166 18C23.3262 18 24.3288 18.2113 25.1738 18.6338C26.026 19.0563 26.6849 19.6292 27.1504 20.3525C27.6159 21.0758 27.8486 21.8887 27.8486 22.791H24.9053C24.9053 22.304 24.8014 21.8743 24.5938 21.502C24.3932 21.1296 24.0853 20.8359 23.6699 20.6211C23.2617 20.4062 22.7461 20.2988 22.123 20.2988C21.5215 20.2988 21.0202 20.3883 20.6191 20.5674C20.2253 20.7464 19.9281 20.9899 19.7275 21.2979C19.5342 21.6058 19.4375 21.9495 19.4375 22.3291C19.4375 22.6156 19.5055 22.8734 19.6416 23.1025C19.7777 23.3245 19.9818 23.5358 20.2539 23.7363C20.526 23.9297 20.8626 24.1123 21.2637 24.2842C21.6719 24.4489 22.1445 24.6136 22.6816 24.7783C23.541 25.0361 24.293 25.3226 24.9375 25.6377C25.5892 25.9528 26.1299 26.3109 26.5596 26.7119C26.9964 27.113 27.3223 27.5641 27.5371 28.0654C27.7591 28.5667 27.8701 29.1361 27.8701 29.7734C27.8701 30.4466 27.7376 31.0482 27.4727 31.5781C27.2077 32.1081 26.8281 32.5592 26.334 32.9316C25.8398 33.304 25.2454 33.5869 24.5508 33.7803C23.8633 33.9736 23.0934 34.0703 22.2412 34.0703C21.4821 34.0703 20.7301 33.9701 19.9854 33.7695C19.2477 33.5618 18.5781 33.2539 17.9766 32.8457C17.375 32.4303 16.8952 31.9076 16.5371 31.2773C16.179 30.64 16 29.8952 16 29.043H18.9648C18.9648 29.5371 19.0436 29.9596 19.2012 30.3105C19.3659 30.6543 19.5951 30.9372 19.8887 31.1592C20.1895 31.374 20.5404 31.5316 20.9414 31.6318C21.3424 31.7321 21.7757 31.7822 22.2412 31.7822C22.8428 31.7822 23.3369 31.6999 23.7236 31.5352C24.1175 31.3633 24.4111 31.127 24.6045 30.8262C24.805 30.5254 24.9053 30.1816 24.9053 29.7949ZM34.7726 22.2324V24.2734H32.7423V30.5039C32.7423 30.8477 32.7889 31.1126 32.882 31.2988C32.9751 31.485 33.1147 31.6104 33.3009 31.6748C33.4871 31.7393 33.7091 31.7715 33.967 31.7715C34.1532 31.7715 34.325 31.7607 34.4826 31.7393C34.6401 31.7178 34.7726 31.6963 34.88 31.6748L34.8908 33.8018C34.6545 33.8805 34.3859 33.945 34.0851 33.9951C33.7915 34.0452 33.4585 34.0703 33.0861 34.0703C32.4487 34.0703 31.8901 33.9629 31.4103 33.748C30.9305 33.526 30.5581 33.1716 30.2931 32.6846C30.0282 32.1904 29.8957 31.5387 29.8957 30.7295V24.2734H28.1125V22.2324H29.8957V19.375H32.7423V22.2324H34.7726ZM38.8392 26.0539V33.8555H36.0032V22.2324H38.6888L38.7776 23.6343C38.8012 23.5925 38.8253 23.5513 38.8499 23.5107C39.1364 23.0381 39.4945 22.6729 39.9241 22.415C40.361 22.1501 40.8623 22.0176 41.428 22.0176C41.5856 22.0176 41.7539 22.0319 41.9329 22.0605C42.1191 22.082 42.2659 22.1143 42.3734 22.1572L42.3304 24.7998C42.1728 24.7712 41.9938 24.7497 41.7933 24.7354C41.5999 24.721 41.4173 24.7139 41.2454 24.7139C40.8086 24.7139 40.4254 24.7747 40.096 24.8965C39.7666 25.0111 39.4909 25.1794 39.2689 25.4014C39.0915 25.5847 38.9482 25.8022 38.8392 26.0539ZM49.0073 33.6729C49.5158 33.4219 49.942 33.0827 50.2861 32.6552L50.3608 33.8555H53.0464V22.2324H50.1889V30.5276C50.0143 30.8787 49.7637 31.168 49.437 31.3955C49.0431 31.6676 48.5024 31.8037 47.8149 31.8037C47.5643 31.8037 47.3279 31.7715 47.1059 31.707C46.8911 31.6354 46.7013 31.5208 46.5366 31.3633C46.3791 31.1986 46.2537 30.9873 46.1606 30.7295C46.0747 30.4717 46.0317 30.1494 46.0317 29.7627V22.2324H43.1958V29.7412C43.1958 30.5146 43.2889 31.1771 43.4751 31.7285C43.6613 32.2728 43.9227 32.7204 44.2593 33.0713C44.603 33.415 45.0112 33.6693 45.4839 33.834C45.9565 33.9915 46.4793 34.0703 47.0522 34.0703C47.8042 34.0703 48.4559 33.9378 49.0073 33.6729ZM60.7438 31.5996C60.4287 31.7572 60.0706 31.8359 59.6696 31.8359C59.1754 31.8359 58.7672 31.7357 58.445 31.5352C58.1299 31.3346 57.8828 31.0661 57.7038 30.7295C57.5319 30.3857 57.4101 29.999 57.3385 29.5693C57.2741 29.1396 57.2418 28.6885 57.2418 28.2158V27.8721C57.2418 27.4066 57.2741 26.9626 57.3385 26.54C57.4101 26.1104 57.5319 25.7236 57.7038 25.3799C57.8828 25.029 58.1299 24.7533 58.445 24.5527C58.7672 24.3522 59.1683 24.252 59.6481 24.252C60.0993 24.252 60.4824 24.3522 60.7975 24.5527C61.1126 24.7533 61.3561 25.0182 61.528 25.3477C61.6998 25.6771 61.7929 26.0495 61.8073 26.4648H64.4821C64.4677 25.5625 64.2565 24.7783 63.8483 24.1123C63.4472 23.4463 62.8886 22.9307 62.1725 22.5654C61.4635 22.2002 60.6399 22.0176 59.7018 22.0176C58.8138 22.0176 58.0368 22.168 57.3707 22.4688C56.7047 22.7695 56.1497 23.1885 55.7057 23.7256C55.2689 24.2627 54.9394 24.8857 54.7174 25.5947C54.5026 26.3037 54.3952 27.0628 54.3952 27.8721V28.2158C54.3952 29.0251 54.5026 29.7842 54.7174 30.4932C54.9394 31.2021 55.2689 31.8252 55.7057 32.3623C56.1497 32.8994 56.7047 33.3184 57.3707 33.6191C58.0368 33.9199 58.8174 34.0703 59.7125 34.0703C60.5934 34.0703 61.3883 33.8913 62.0973 33.5332C62.8134 33.168 63.3864 32.6738 63.8161 32.0508C64.2457 31.4277 64.4677 30.7223 64.4821 29.9346H61.8073C61.7929 30.3141 61.6891 30.6471 61.4957 30.9336C61.3095 31.2201 61.0589 31.4421 60.7438 31.5996ZM71.2127 22.2324V24.2734H69.1824V30.5039C69.1824 30.8477 69.229 31.1126 69.3221 31.2988C69.4152 31.485 69.5548 31.6104 69.741 31.6748C69.9272 31.7393 70.1492 31.7715 70.407 31.7715C70.5932 31.7715 70.7651 31.7607 70.9227 31.7393C71.0802 31.7178 71.2127 31.6963 71.3201 31.6748L71.3309 33.8018C71.0945 33.8805 70.826 33.945 70.5252 33.9951C70.2316 34.0452 69.8986 34.0703 69.5262 34.0703C68.8888 34.0703 68.3302 33.9629 67.8504 33.748C67.3706 33.526 66.9982 33.1716 66.7332 32.6846C66.4682 32.1904 66.3357 31.5387 66.3357 30.7295V24.2734H64.5525V22.2324H66.3357V19.375H69.1824V22.2324H71.2127ZM79.4584 32.6552C79.1144 33.0827 78.6881 33.4219 78.1796 33.6729C77.6282 33.9378 76.9765 34.0703 76.2246 34.0703C75.6517 34.0703 75.1289 33.9915 74.6562 33.834C74.1836 33.6693 73.7754 33.415 73.4316 33.0713C73.095 32.7204 72.8336 32.2728 72.6474 31.7285C72.4612 31.1771 72.3681 30.5146 72.3681 29.7412V22.2324H75.2041V29.7627C75.2041 30.1494 75.247 30.4717 75.333 30.7295C75.4261 30.9873 75.5514 31.1986 75.7089 31.3633C75.8737 31.5208 76.0634 31.6354 76.2783 31.707C76.5003 31.7715 76.7366 31.8037 76.9873 31.8037C77.6748 31.8037 78.2155 31.6676 78.6093 31.3955C78.936 31.168 79.1867 30.8787 79.3613 30.5276V22.2324H82.2187V33.8555H79.5332L79.4584 32.6552ZM86.9083 33.8555V26.0539C87.0174 25.8022 87.1606 25.5847 87.338 25.4014C87.56 25.1794 87.8357 25.0111 88.1652 24.8965C88.4946 24.7747 88.8777 24.7139 89.3146 24.7139C89.4864 24.7139 89.6691 24.721 89.8624 24.7354C90.0629 24.7497 90.242 24.7712 90.3995 24.7998L90.4425 22.1572C90.3351 22.1143 90.1883 22.082 90.0021 22.0605C89.823 22.0319 89.6547 22.0176 89.4972 22.0176C88.9314 22.0176 88.4301 22.1501 87.9933 22.415C87.5636 22.6729 87.2055 23.0381 86.9191 23.5107C86.8944 23.5513 86.8703 23.5925 86.8467 23.6343L86.7579 22.2324H84.0724V33.8555H86.9083ZM93.972 33.6406C94.6738 33.9271 95.4651 34.0703 96.346 34.0703C97.1051 34.0703 97.7747 33.9701 98.3548 33.7695C98.9348 33.5618 99.429 33.2933 99.8372 32.9639C100.253 32.6344 100.582 32.2907 100.825 31.9326L99.3968 30.4502C99.0387 30.9085 98.6162 31.2559 98.1292 31.4922C97.6494 31.7214 97.1123 31.8359 96.5179 31.8359C96.0452 31.8359 95.6227 31.7536 95.2503 31.5889C94.885 31.417 94.5699 31.1807 94.305 30.8799C94.0471 30.5719 93.8502 30.2103 93.7141 29.7949C93.627 29.5141 93.5693 29.2169 93.5411 28.9033H101.062V27.7109C101.062 26.8659 100.954 26.096 100.74 25.4014C100.525 24.6995 100.206 24.098 99.7835 23.5967C99.361 23.0954 98.8346 22.7087 98.2044 22.4365C97.5742 22.1572 96.8473 22.0176 96.0237 22.0176C95.2288 22.0176 94.5019 22.1608 93.843 22.4473C93.1842 22.7337 92.6184 23.1419 92.1458 23.6719C91.6731 24.2018 91.3079 24.8356 91.0501 25.5732C90.7923 26.3037 90.6634 27.1165 90.6634 28.0117V28.4414C90.6634 29.2292 90.7923 29.9668 91.0501 30.6543C91.3151 31.3346 91.691 31.9326 92.178 32.4482C92.6721 32.9567 93.2701 33.3542 93.972 33.6406Z" fill="#0D9488"/>
</g>
<defs>
<clipPath id="clip0_6863_1091">
<rect width="117.333" height="53.3333" fill="white"/>
</clipPath>
</defs>
</svg>
