<svg width="87" height="39" viewBox="0 0 87 39" fill="none" xmlns="http://www.w3.org/2000/svg">
<rect width="87" height="39" fill="white"/>
<path d="M69.3944 19.7059C69.4107 19.5895 69.4309 19.4769 69.455 19.3681C69.5294 19.033 69.6409 18.7449 69.7896 18.5041C69.9436 18.2579 70.1347 18.0694 70.3631 17.9385C70.5967 17.8023 70.8702 17.7342 71.1835 17.7342C71.5711 17.7342 71.887 17.818 72.1313 17.9856C72.3756 18.1479 72.5561 18.3679 72.6729 18.6454C72.7898 18.9178 72.8535 19.2189 72.8641 19.5488V19.7059H69.3944Z" fill="#0D9488"/>
<path fill-rule="evenodd" clip-rule="evenodd" d="M31.6364 0C31.6364 2.15391 29.8659 3.9 27.6818 3.9C25.4978 3.9 23.7273 2.15391 23.7273 0H0V15.6C2.18404 15.6 3.95455 17.3461 3.95455 19.5C3.95455 21.6539 2.18404 23.4 0 23.4V39H23.7273C23.7273 36.8461 25.4978 35.1 27.6818 35.1C29.8659 35.1 31.6364 36.8461 31.6364 39H87V23.4C84.816 23.4 83.0455 21.6539 83.0455 19.5C83.0455 17.3461 84.816 15.6 87 15.6V0H31.6364ZM18.4667 21.7875C18.4667 21.5676 18.4322 21.3712 18.3631 21.1984C18.2994 21.0203 18.18 20.8606 18.0047 20.7192C17.8348 20.5726 17.5932 20.4312 17.2799 20.295C16.9719 20.1536 16.5737 20.007 16.0851 19.8552C15.5435 19.6876 15.0391 19.499 14.5718 19.2896C14.1045 19.0801 13.693 18.8366 13.3372 18.559C12.9867 18.2815 12.7132 17.962 12.5168 17.6007C12.3203 17.2341 12.2221 16.8099 12.2221 16.3282C12.2221 15.8568 12.323 15.4274 12.5247 15.0399C12.7318 14.6524 13.0239 14.3198 13.4009 14.0423C13.7779 13.7595 14.2213 13.5422 14.7311 13.3903C15.2461 13.2384 15.8143 13.1625 16.4356 13.1625C17.2958 13.1625 18.0392 13.317 18.6658 13.626C19.2977 13.9349 19.7862 14.3539 20.1314 14.8828C20.4766 15.4117 20.6491 16.0061 20.6491 16.6659H18.4667C18.4667 16.3098 18.3897 15.9956 18.2357 15.7233C18.087 15.451 17.8587 15.2363 17.5507 15.0792C17.248 14.9221 16.8657 14.8435 16.4037 14.8435C15.9577 14.8435 15.586 14.909 15.2886 15.0399C14.9966 15.1708 14.7762 15.3489 14.6275 15.5741C14.4841 15.7992 14.4125 16.0506 14.4125 16.3282C14.4125 16.5376 14.4629 16.7262 14.5638 16.8937C14.6647 17.0561 14.816 17.2106 15.0178 17.3572C15.2196 17.4986 15.4692 17.6321 15.7665 17.7578C16.0692 17.8783 16.4197 17.9987 16.8179 18.1191C17.4551 18.3077 18.0127 18.5171 18.4906 18.7476C18.9738 18.978 19.3747 19.2398 19.6933 19.5331C20.0172 19.8263 20.2588 20.1563 20.4181 20.5228C20.5828 20.8894 20.6651 21.3057 20.6651 21.7718C20.6651 22.2641 20.5668 22.704 20.3703 23.0915C20.1739 23.479 19.8924 23.8089 19.5261 24.0813C19.1597 24.3536 18.7189 24.5604 18.2038 24.7018C17.6941 24.8432 17.1232 24.9139 16.4914 24.9139C15.9285 24.9139 15.3709 24.8406 14.8187 24.694C14.2717 24.5421 13.7753 24.3169 13.3292 24.0184C12.8832 23.7147 12.5274 23.3324 12.2619 22.8716C11.9964 22.4055 11.8636 21.8609 11.8636 21.2377H14.062C14.062 21.599 14.1204 21.908 14.2372 22.1646C14.3594 22.416 14.5293 22.6228 14.747 22.7851C14.97 22.9423 15.2302 23.0575 15.5276 23.1308C15.8249 23.2041 16.1462 23.2408 16.4914 23.2408C16.9374 23.2408 17.3038 23.1805 17.5905 23.0601C17.8826 22.9344 18.1003 22.7616 18.2437 22.5416C18.3924 22.3217 18.4667 22.0703 18.4667 21.7875ZM25.7831 16.2575V17.75H24.2777V22.306C24.2777 22.5573 24.3122 22.7511 24.3812 22.8873C24.4503 23.0234 24.5538 23.1151 24.6919 23.1622C24.83 23.2093 24.9946 23.2329 25.1857 23.2329C25.3238 23.2329 25.4512 23.225 25.568 23.2093C25.6849 23.1936 25.7831 23.1779 25.8628 23.1622L25.8707 24.7175C25.6955 24.7751 25.4964 24.8223 25.2733 24.8589C25.0556 24.8956 24.8087 24.9139 24.5326 24.9139C24.06 24.9139 23.6458 24.8354 23.29 24.6783C22.9343 24.5159 22.6581 24.2567 22.4617 23.9006C22.2652 23.5393 22.167 23.0627 22.167 22.4709V17.75H20.8448V16.2575H22.167V14.168H24.2777V16.2575H25.7831ZM28.7984 19.0519V24.7568H26.6956V16.2575H28.6869L28.7527 17.2826C28.7702 17.252 28.7881 17.2219 28.8063 17.1922C29.0187 16.8466 29.2842 16.5795 29.6028 16.391C29.9268 16.1972 30.2985 16.1004 30.718 16.1004C30.8348 16.1004 30.9596 16.1108 31.0923 16.1318C31.2304 16.1475 31.3392 16.1711 31.4189 16.2025L31.387 18.1349C31.2702 18.1139 31.1375 18.0982 30.9888 18.0877C30.8454 18.0773 30.71 18.072 30.5825 18.072C30.2586 18.072 29.9745 18.1165 29.7303 18.2056C29.486 18.2893 29.2816 18.4124 29.117 18.5747C28.9854 18.7088 28.8792 18.8679 28.7984 19.0519ZM36.3378 24.6233C36.7148 24.4398 37.0309 24.1917 37.286 23.8791L37.3414 24.7568H39.3327V16.2575H37.214V22.3233C37.0845 22.5801 36.8986 22.7916 36.6564 22.958C36.3644 23.157 35.9634 23.2565 35.4537 23.2565C35.2678 23.2565 35.0926 23.2329 34.928 23.1858C34.7687 23.1334 34.628 23.0496 34.5058 22.9344C34.389 22.814 34.2961 22.6595 34.2271 22.4709C34.1633 22.2824 34.1315 22.0468 34.1315 21.764V16.2575H32.0287V21.7483C32.0287 22.3138 32.0977 22.7982 32.2358 23.2015C32.3738 23.5995 32.5677 23.9268 32.8172 24.1834C33.0721 24.4347 33.3748 24.6207 33.7253 24.7411C34.0757 24.8563 34.4634 24.9139 34.8882 24.9139C35.4457 24.9139 35.9289 24.817 36.3378 24.6233ZM45.0401 23.1072C44.8065 23.2224 44.541 23.28 44.2436 23.28C43.8772 23.28 43.5746 23.2067 43.3356 23.0601C43.102 22.9135 42.9188 22.7171 42.786 22.4709C42.6586 22.2196 42.5683 21.9368 42.5152 21.6226C42.4674 21.3084 42.4435 20.9784 42.4435 20.6328V20.3815C42.4435 20.0411 42.4674 19.7164 42.5152 19.4074C42.5683 19.0932 42.6586 18.8104 42.786 18.559C42.9188 18.3024 43.102 18.1008 43.3356 17.9542C43.5746 17.8076 43.8719 17.7342 44.2277 17.7342C44.5622 17.7342 44.8463 17.8076 45.08 17.9542C45.3136 18.1008 45.4941 18.2946 45.6216 18.5355C45.749 18.7764 45.8181 19.0487 45.8287 19.3524H47.812C47.8014 18.6926 47.6447 18.1191 47.342 17.6321C47.0447 17.1451 46.6305 16.768 46.0995 16.501C45.5738 16.2339 44.9631 16.1004 44.2675 16.1004C43.6091 16.1004 43.0329 16.2103 42.5391 16.4303C42.0453 16.6502 41.6337 16.9566 41.3045 17.3493C40.9806 17.7421 40.7363 18.1977 40.5717 18.7161C40.4124 19.2346 40.3328 19.7897 40.3328 20.3815V20.6328C40.3328 21.2246 40.4124 21.7797 40.5717 22.2981C40.7363 22.8166 40.9806 23.2722 41.3045 23.6649C41.6337 24.0577 42.0453 24.364 42.5391 24.584C43.0329 24.8039 43.6117 24.9139 44.2755 24.9139C44.9286 24.9139 45.518 24.783 46.0437 24.5212C46.5747 24.2541 46.9995 23.8927 47.3182 23.4371C47.6368 22.9815 47.8014 22.4657 47.812 21.8897H45.8287C45.8181 22.1672 45.7411 22.4107 45.5977 22.6202C45.4596 22.8297 45.2738 22.992 45.0401 23.1072ZM52.8026 16.2575V17.75H51.2972V22.306C51.2972 22.5573 51.3317 22.7511 51.4007 22.8873C51.4698 23.0234 51.5733 23.1151 51.7114 23.1622C51.8494 23.2093 52.014 23.2329 52.2052 23.2329C52.3433 23.2329 52.4707 23.225 52.5875 23.2093C52.7044 23.1936 52.8026 23.1779 52.8822 23.1622L52.8902 24.7175C52.715 24.7751 52.5158 24.8223 52.2928 24.8589C52.0751 24.8956 51.8282 24.9139 51.5521 24.9139C51.0795 24.9139 50.6653 24.8354 50.3095 24.6783C49.9537 24.5159 49.6776 24.2567 49.4811 23.9006C49.2847 23.5393 49.1864 23.0627 49.1864 22.4709V17.75H47.8642V16.2575H49.1864V14.168H51.2972V16.2575H52.8026ZM58.9166 23.8791C58.6615 24.1917 58.3454 24.4398 57.9684 24.6233C57.5596 24.817 57.0763 24.9139 56.5188 24.9139C56.094 24.9139 55.7063 24.8563 55.3559 24.7411C55.0054 24.6207 54.7027 24.4347 54.4479 24.1834C54.1983 23.9268 54.0045 23.5995 53.8664 23.2015C53.7284 22.7982 53.6593 22.3138 53.6593 21.7483V16.2575H55.7621V21.764C55.7621 22.0468 55.794 22.2824 55.8577 22.4709C55.9267 22.6595 56.0196 22.814 56.1365 22.9344C56.2586 23.0496 56.3993 23.1334 56.5586 23.1858C56.7232 23.2329 56.8985 23.2565 57.0843 23.2565C57.5941 23.2565 57.995 23.157 58.287 22.958C58.5293 22.7916 58.7151 22.5801 58.8446 22.3233V16.2575H60.9633V24.7568H58.972L58.9166 23.8791ZM64.4405 24.7568V19.0519C64.5214 18.8679 64.6276 18.7088 64.7591 18.5747C64.9238 18.4124 65.1282 18.2893 65.3725 18.2056C65.6167 18.1165 65.9008 18.072 66.2247 18.072C66.3522 18.072 66.4876 18.0773 66.6309 18.0877C66.7796 18.0982 66.9124 18.1139 67.0292 18.1349L67.0611 16.2025C66.9814 16.1711 66.8725 16.1475 66.7345 16.1318C66.6017 16.1108 66.4769 16.1004 66.3601 16.1004C65.9406 16.1004 65.5689 16.1972 65.245 16.391C64.9264 16.5795 64.6609 16.8466 64.4485 17.1922C64.4303 17.2219 64.4124 17.252 64.3949 17.2826L64.329 16.2575H62.3378V24.7568H64.4405ZM69.6781 24.5997C70.1985 24.8092 70.7852 24.9139 71.4384 24.9139C72.0012 24.9139 72.4977 24.8406 72.9278 24.694C73.3579 24.5421 73.7243 24.3457 74.027 24.1048C74.335 23.8639 74.5792 23.6126 74.7598 23.3507L73.7004 22.2667C73.4349 22.6019 73.1216 22.8558 72.7606 23.0287C72.4048 23.1962 72.0065 23.28 71.5658 23.28C71.2153 23.28 70.902 23.2198 70.6259 23.0994C70.3551 22.9737 70.1215 22.8009 69.925 22.5809C69.7338 22.3557 69.5878 22.0913 69.4869 21.7875C69.4223 21.5822 69.3795 21.3649 69.3586 21.1356H74.935V20.2636C74.935 19.6457 74.8554 19.0827 74.6961 18.5747C74.5368 18.0615 74.3005 17.6216 73.9872 17.2551C73.6739 16.8885 73.2836 16.6057 72.8163 16.4067C72.349 16.2025 71.8101 16.1004 71.1994 16.1004C70.61 16.1004 70.071 16.2051 69.5825 16.4146C69.094 16.624 68.6745 16.9225 68.324 17.3101C67.9735 17.6976 67.7027 18.161 67.5116 18.7004C67.3204 19.2346 67.2248 19.829 67.2248 20.4836V20.7978C67.2248 21.3738 67.3204 21.9132 67.5116 22.416C67.708 22.9135 67.9868 23.3507 68.3479 23.7278C68.7143 24.0996 69.1577 24.3902 69.6781 24.5997Z" fill="#0D9488"/>
</svg>
