<svg width="44" height="20" viewBox="0 0 44 20" fill="none" xmlns="http://www.w3.org/2000/svg">
<rect width="44" height="20" fill="white"/>
<g clip-path="url(#clip0_7188_2138)">
<path fill-rule="evenodd" clip-rule="evenodd" d="M14.625 1.90041C15.4235 1.63796 16 0.886305 16 0H44V8C42.8954 8 42 8.89543 42 10C42 11.1046 42.8954 12 44 12V20H16C16 19.1137 15.4235 18.362 14.625 18.0996V1.90041ZM13.375 1.90041C12.5765 1.63796 12 0.886305 12 0H0V8C1.10457 8 2 8.89543 2 10C2 11.1046 1.10457 12 0 12V20H12C12 19.1137 12.5765 18.362 13.375 18.0996V1.90041ZM30.8552 12.7834C30.8552 12.5749 30.8266 12.3877 30.7694 12.2219C30.717 12.0508 30.6169 11.8957 30.4692 11.7567C30.3214 11.6123 30.1141 11.4706 29.8472 11.3316C29.5803 11.1925 29.2347 11.0481 28.8105 10.8984C28.3387 10.7273 27.8907 10.5348 27.4665 10.3209C27.0471 10.107 26.6753 9.85829 26.3512 9.57487C26.0319 9.2861 25.7793 8.95187 25.5934 8.57219C25.4123 8.19251 25.3217 7.75134 25.3217 7.24866C25.3217 6.76203 25.417 6.32086 25.6077 5.92513C25.7983 5.52406 26.0652 5.18182 26.4084 4.8984C26.7516 4.60963 27.1567 4.3877 27.6238 4.23262C28.0956 4.07754 28.6127 4 29.1752 4C29.9425 4 30.6122 4.15508 31.1841 4.46524C31.756 4.7754 32.1993 5.20053 32.5139 5.74064C32.8332 6.28075 32.9929 6.8984 32.9929 7.59358H30.8624C30.8624 7.25134 30.798 6.95187 30.6693 6.69519C30.5454 6.43316 30.3548 6.22727 30.0974 6.07754C29.8448 5.92781 29.5255 5.85294 29.1394 5.85294C28.7677 5.85294 28.4578 5.91711 28.21 6.04545C27.9622 6.16845 27.7763 6.3369 27.6524 6.5508C27.5284 6.75936 27.4665 6.99465 27.4665 7.25668C27.4665 7.45455 27.5094 7.63369 27.5952 7.79412C27.6857 7.95455 27.8192 8.10428 27.9955 8.24332C28.1719 8.38235 28.3887 8.51337 28.6461 8.63636C28.9035 8.75936 29.2014 8.87968 29.5398 8.99733C30.1069 9.18984 30.605 9.40642 31.034 9.64706C31.4677 9.8877 31.8299 10.1578 32.1206 10.4572C32.4114 10.7567 32.6306 11.0963 32.7784 11.4759C32.9261 11.8556 33 12.2861 33 12.7674C33 13.2754 32.9118 13.7299 32.7355 14.131C32.5591 14.5321 32.3041 14.8717 31.9705 15.1497C31.6369 15.4278 31.2389 15.639 30.7766 15.7834C30.3143 15.9278 29.7971 16 29.2252 16C28.7105 16 28.2029 15.9251 27.7024 15.7754C27.202 15.6203 26.7468 15.3877 26.3369 15.0775C25.9318 14.7674 25.6077 14.3717 25.3646 13.8904C25.1215 13.4091 25 12.8396 25 12.1818H27.1519C27.1519 12.5455 27.202 12.8529 27.3021 13.1043C27.4021 13.3556 27.5427 13.5588 27.7239 13.7139C27.9097 13.869 28.129 13.9813 28.3816 14.0508C28.639 14.1203 28.9202 14.1551 29.2252 14.1551C29.597 14.1551 29.902 14.0963 30.1403 13.9786C30.3834 13.861 30.5621 13.6979 30.6765 13.4893C30.7957 13.2807 30.8552 13.0455 30.8552 12.7834Z" fill="#0D9488"/>
</g>
<defs>
<clipPath id="clip0_7188_2138">
<rect width="44" height="20" fill="white"/>
</clipPath>
</defs>
</svg>

