<svg width="50" height="26" viewBox="0 0 50 26" fill="none" xmlns="http://www.w3.org/2000/svg">
<rect width="50" height="26" fill="white"/>
<path fill-rule="evenodd" clip-rule="evenodd" d="M19 3C19 4.10457 18.1046 5 17 5C15.8954 5 15 4.10457 15 3H3V11C4.10457 11 5 11.8954 5 13C5 14.1046 4.10457 15 3 15V23H15C15 21.8954 15.8954 21 17 21C18.1046 21 19 21.8954 19 23H47V15C45.8954 15 45 14.1046 45 13C45 11.8954 45.8954 11 47 11V3H19ZM33.7694 15.2219C33.8266 15.3877 33.8552 15.5749 33.8552 15.7834C33.8552 16.0455 33.7957 16.2807 33.6765 16.4893C33.5621 16.6979 33.3834 16.861 33.1403 16.9786C32.902 17.0963 32.597 17.1551 32.2252 17.1551C31.9202 17.1551 31.639 17.1203 31.3816 17.0508C31.129 16.9813 30.9097 16.869 30.7239 16.7139C30.5427 16.5588 30.4021 16.3556 30.3021 16.1043C30.202 15.8529 30.1519 15.5455 30.1519 15.1818H28C28 15.8396 28.1215 16.4091 28.3646 16.8904C28.6077 17.3717 28.9318 17.7674 29.3369 18.0775C29.7468 18.3877 30.202 18.6203 30.7024 18.7754C31.2029 18.9251 31.7105 19 32.2252 19C32.7971 19 33.3143 18.9278 33.7766 18.7834C34.2389 18.639 34.6369 18.4278 34.9705 18.1497C35.3041 17.8717 35.5591 17.5321 35.7355 17.131C35.9118 16.7299 36 16.2754 36 15.7674C36 15.2861 35.9261 14.8556 35.7784 14.4759C35.6306 14.0963 35.4114 13.7567 35.1206 13.4572C34.8299 13.1578 34.4677 12.8877 34.034 12.6471C33.605 12.4064 33.1069 12.1898 32.5398 11.9973C32.2014 11.8797 31.9035 11.7594 31.6461 11.6364C31.3887 11.5134 31.1719 11.3824 30.9955 11.2433C30.8192 11.1043 30.6857 10.9545 30.5952 10.7941C30.5094 10.6337 30.4665 10.4545 30.4665 10.2567C30.4665 9.99465 30.5284 9.75936 30.6524 9.5508C30.7763 9.3369 30.9622 9.16845 31.21 9.04545C31.4578 8.91711 31.7677 8.85294 32.1394 8.85294C32.5255 8.85294 32.8448 8.92781 33.0974 9.07754C33.3548 9.22727 33.5454 9.43316 33.6693 9.69519C33.798 9.95187 33.8624 10.2513 33.8624 10.5936H35.9929C35.9929 9.8984 35.8332 9.28075 35.5139 8.74064C35.1993 8.20053 34.756 7.7754 34.1841 7.46524C33.6122 7.15508 32.9425 7 32.1752 7C31.6127 7 31.0956 7.07754 30.6238 7.23262C30.1567 7.3877 29.7516 7.60963 29.4084 7.8984C29.0652 8.18182 28.7983 8.52406 28.6077 8.92513C28.417 9.32086 28.3217 9.76203 28.3217 10.2487C28.3217 10.7513 28.4123 11.1925 28.5934 11.5722C28.7793 11.9519 29.0319 12.2861 29.3512 12.5749C29.6753 12.8583 30.0471 13.107 30.4665 13.3209C30.8907 13.5348 31.3387 13.7273 31.8105 13.8984C32.2347 14.0481 32.5803 14.1925 32.8472 14.3316C33.1141 14.4706 33.3214 14.6123 33.4692 14.7567C33.6169 14.8957 33.717 15.0508 33.7694 15.2219Z" fill="#0D9488"/>
</svg>
